<svg fill="none" height="105" viewBox="0 0 103 105" width="103" xmlns="http://www.w3.org/2000/svg" xmlns:xlink="http://www.w3.org/1999/xlink"><filter id="a" color-interpolation-filters="sRGB" filterUnits="userSpaceOnUse" height="96.4378" width="91.178" x=".129883" y=".858215"><feFlood flood-opacity="0" result="BackgroundImageFix"/><feBlend in="SourceGraphic" in2="BackgroundImageFix" mode="normal" result="shape"/><feGaussianBlur result="effect1_foregroundBlur_1_404" stdDeviation="9.5"/></filter><filter id="b" color-interpolation-filters="sRGB" filterUnits="userSpaceOnUse" height="125.583" width="123.5" x="2.75781" y="3.27344"><feFlood flood-opacity="0" result="BackgroundImageFix"/><feGaussianBlur in="BackgroundImageFix" stdDeviation="12"/><feComposite in2="SourceAlpha" operator="in" result="effect1_backgroundBlur_1_404"/><feBlend in="SourceGraphic" in2="effect1_backgroundBlur_1_404" mode="normal" result="shape"/></filter><filter id="c" color-interpolation-filters="sRGB" filterUnits="userSpaceOnUse" height="48.7425" width="66.3882" x="31.3135" y="7.18945"><feFlood flood-opacity="0" result="BackgroundImageFix"/><feGaussianBlur in="BackgroundImageFix" stdDeviation="7.5"/><feComposite in2="SourceAlpha" operator="in" result="effect1_backgroundBlur_1_404"/><feColorMatrix in="SourceAlpha" result="hardAlpha" type="matrix" values="0 0 0 0 0 0 0 0 0 0 0 0 0 0 0 0 0 0 127 0"/><feOffset dx="5" dy="5"/><feGaussianBlur stdDeviation="5"/><feColorMatrix type="matrix" values="0 0 0 0 1 0 0 0 0 0.537255 0 0 0 0 0.160784 0 0 0 0.2 0"/><feBlend in2="effect1_backgroundBlur_1_404" mode="normal" result="effect2_dropShadow_1_404"/><feBlend in="SourceGraphic" in2="effect2_dropShadow_1_404" mode="normal" result="shape"/></filter><filter id="d" color-interpolation-filters="sRGB" filterUnits="userSpaceOnUse" height="51.8048" width="69.9774" x="29.5352" y="51.123"><feFlood flood-opacity="0" result="BackgroundImageFix"/><feGaussianBlur in="BackgroundImageFix" stdDeviation="7.5"/><feComposite in2="SourceAlpha" operator="in" result="effect1_backgroundBlur_1_404"/><feColorMatrix in="SourceAlpha" result="hardAlpha" type="matrix" values="0 0 0 0 0 0 0 0 0 0 0 0 0 0 0 0 0 0 127 0"/><feOffset dx="5" dy="5"/><feGaussianBlur stdDeviation="5"/><feColorMatrix type="matrix" values="0 0 0 0 1 0 0 0 0 0.52549 0 0 0 0 0.137255 0 0 0 0.5 0"/><feBlend in2="effect1_backgroundBlur_1_404" mode="normal" result="effect2_dropShadow_1_404"/><feBlend in="SourceGraphic" in2="effect2_dropShadow_1_404" mode="normal" result="shape"/></filter><filter id="e" color-interpolation-filters="sRGB" filterUnits="userSpaceOnUse" height="36.2124" width="94.5001" x="16.5077" y="34.0234"><feFlood flood-opacity="0" result="BackgroundImageFix"/><feGaussianBlur in="BackgroundImageFix" stdDeviation="7.5"/><feComposite in2="SourceAlpha" operator="in" result="effect1_backgroundBlur_1_404"/><feBlend in="SourceGraphic" in2="effect1_backgroundBlur_1_404" mode="normal" result="shape"/></filter><linearGradient id="f" gradientUnits="userSpaceOnUse" x1="63.1265" x2="33.8891" y1="15.2158" y2="84.9151"><stop offset="0" stop-color="#ffb37f"/><stop offset="1" stop-color="#ff7b0d"/></linearGradient><linearGradient id="g"><stop offset="0" stop-color="#fff" stop-opacity=".25"/><stop offset="1" stop-color="#fff" stop-opacity="0"/></linearGradient><linearGradient id="h" gradientUnits="userSpaceOnUse" x1="39.4578" x2="87.9385" xlink:href="#g" y1="37.079" y2="95.4685"/><linearGradient id="i"><stop offset="0" stop-color="#fff"/><stop offset="1" stop-color="#fff" stop-opacity=".2"/></linearGradient><linearGradient id="j" gradientUnits="userSpaceOnUse" x1="80.5078" x2="81.6005" xlink:href="#i" y1="38.0234" y2="23.946"/><linearGradient id="k" gradientUnits="userSpaceOnUse" x1="79.5078" x2="94.3032" xlink:href="#g" y1="25.0234" y2="30.5728"/><linearGradient id="l" gradientUnits="userSpaceOnUse" x1="81.6782" x2="14.2736" xlink:href="#i" y1="70.0606" y2="65.6194"/><linearGradient id="m" gradientUnits="userSpaceOnUse" x1="50.8989" x2="61.3954" xlink:href="#g" y1="68.6633" y2="92.4981"/><linearGradient id="n" gradientUnits="userSpaceOnUse" x1="48.9165" x2="46.6039" xlink:href="#i" y1="52.042" y2="44.7986"/><mask id="o" fill="#000" height="78" maskUnits="userSpaceOnUse" width="76" x="26.7578" y="27.2734"><path d="m26.7578 27.2734h76v78h-76z" fill="#fff"/><path clip-rule="evenodd" d="m28.4048 43.1368c-.3792 1.5312-.5809 6.2883-.6333 8.6852h73.4715c-.052-2.401-.254-7.1948-.629-8.6852-1.9364-8.5342-8.5925-14.0426-17.9112-14.8634h-36.3869c-9.3993.78-15.9747 6.2516-17.9111 14.8634zm-.647 8.686v31.0864c0 12.9033 8.1488 20.9478 20.9366 20.9478h31.5865c12.9089 0 20.9771-7.8812 20.9771-20.6987v-31.3355zm16.7815 17.7789c.0807 1.8742 1.6136 3.3483 3.4692 3.2626 1.8154-.0776 3.2676-1.6293 3.1869-3.5117-.0403-1.8334-1.5329-3.2667-3.3482-3.2667-1.8557.0858-3.3079 1.6375-3.3079 3.5158zm16.58 0c.0807 1.8742 1.6136 3.3483 3.4693 3.2626 1.8153-.0776 3.2675-1.6293 3.1869-3.5117-.0404-1.8334-1.533-3.2667-3.3483-3.2667-1.8556.0858-3.3079 1.6375-3.3079 3.5158zm16.5799 14.8184c0 1.8783 1.4926 3.43 3.3482 3.4708 1.896 0 3.4289-1.5516 3.4289-3.4708 0-1.9151-1.5329-3.4667-3.4289-3.4667h-.0403c-1.8557.0408-3.3483 1.5884-3.3079 3.4667zm-13.1106 3.2667c-1.8557.0858-3.3886-1.3883-3.4693-3.2666 0-1.8784 1.4523-3.4259 3.3079-3.5117 1.8153 0 3.3079 1.4333 3.3483 3.2708.0806 1.8783-1.3716 3.43-3.1869 3.5075zm-16.6204 0c-1.8557.0858-3.3886-1.3883-3.4693-3.2666 0-1.8784 1.4523-3.4259 3.3079-3.5117 1.8153 0 3.3079 1.4333 3.3483 3.2708.0806 1.8783-1.3716 3.43-3.1869 3.5075zm33.079-21.5559c-1.8557.0408-3.3079 1.5516-3.3079 3.43v.0408c.0403 1.8743 1.5733 3.3034 3.4289 3.2626 1.8153-.0368 3.2676-1.5884 3.2272-3.4668-.0806-1.8007-1.5329-3.2666-3.3482-3.2666z" fill="#000" fill-rule="evenodd"/></mask><mask id="p" fill="#fff"><path clip-rule="evenodd" d="m52.5259 37.7878c0 1.8007-1.3312 3.1441-3.1062 3.1441s-3.1062-1.3434-3.1062-3.1441v-12.4501c0-1.8007 1.3312-3.1482 3.1062-3.1482s3.1062 1.3475 3.1062 3.1482zm30.1758 0c0 1.8007-1.3716 3.1441-3.1062 3.1441-1.775 0-3.1062-1.3434-3.1062-3.1441v-12.4501c0-1.8007 1.3312-3.1482 3.1062-3.1482 1.7346 0 3.1062 1.3475 3.1062 3.1482z" fill="#fff" fill-rule="evenodd"/></mask><mask id="q" fill="#fff"><path clip-rule="evenodd" d="m44.5764 69.6388c.0807 1.8743 1.6136 3.3483 3.4693 3.2626 1.8153-.0776 3.2675-1.6293 3.1869-3.5117-.0404-1.8334-1.533-3.2667-3.3483-3.2667-1.8556.0858-3.3079 1.6375-3.3079 3.5158zm16.5792 0c.0806 1.8743 1.6136 3.3483 3.4692 3.2626 1.8153-.0776 3.2676-1.6293 3.1869-3.5117-.0403-1.8334-1.5329-3.2667-3.3482-3.2667-1.8557.0858-3.3079 1.6375-3.3079 3.5158zm16.5798 14.8182c0 1.8784 1.4926 3.43 3.3483 3.4709 1.8959 0 3.4289-1.5517 3.4289-3.4709 0-1.915-1.533-3.4667-3.4289-3.4667h-.0404c-1.8556.0408-3.3482 1.5884-3.3079 3.4667zm-13.1106 3.267c-1.8556.0858-3.3886-1.3883-3.4692-3.2667 0-1.8783 1.4522-3.4259 3.3079-3.5116 1.8153 0 3.3079 1.4332 3.3482 3.2707.0807 1.8784-1.3716 3.43-3.1869 3.5076zm-16.6204 0c-1.8556.0858-3.3886-1.3883-3.4692-3.2667 0-1.8783 1.4522-3.4259 3.3079-3.5116 1.8153 0 3.3079 1.4332 3.3482 3.2707.0807 1.8784-1.3716 3.43-3.1869 3.5076zm33.0791-21.5559c-1.8557.0408-3.3079 1.5516-3.3079 3.43v.0408c.0403 1.8742 1.5732 3.3034 3.4289 3.2626 1.8153-.0368 3.2676-1.5884 3.2272-3.4668-.0807-1.8007-1.5329-3.2666-3.3482-3.2666z" fill="#fff" fill-rule="evenodd"/></mask><path clip-rule="evenodd" d="m24.0845 14.9566c-.942 1.2653-2.9682 5.5741-3.9437 7.7641l67.7522 28.4206c.8804-2.2344 2.5488-6.733 2.7793-8.2525 1.5157-8.6189-2.4915-16.2732-10.7672-20.6348l-33.5544-14.07528c-8.9693-2.91667-17.1494-.4145-22.2662 6.77788zm-15.9816 36.4259 12.025-28.6664 67.7783 28.4315-12.1214 28.8962c-4.9581 11.8198-15.4466 15.9662-27.3506 10.9727l-29.1275-12.2184c-11.7924-4.9466-16.19512-15.5167-11.2038-27.4156z" fill="url(#f)" fill-rule="evenodd"/><g filter="url(#a)" opacity=".5"><path d="m64.946 28.4908-18.7919-7.5849c-6.8163-2.7513-12.5353-.0167-15.5345 7.4139l-10.1579 25.1664c-3.0484 7.5523-.7907 13.3933 6.0256 16.1445l18.7918 7.585c6.9262 2.7956 12.4938.1132 15.5421-7.4392l10.1579-25.1664c2.9992-7.4305.893-13.3236-6.0331-16.1193z" fill="#eb6f0a"/></g><g filter="url(#b)"><path clip-rule="evenodd" d="m28.4048 43.1368c-.3792 1.5312-.5809 6.2883-.6333 8.6852h73.4715c-.052-2.401-.254-7.1948-.629-8.6852-1.9364-8.5342-8.5925-14.0426-17.9112-14.8634h-36.3869c-9.3993.78-15.9747 6.2516-17.9111 14.8634zm-.647 8.686v31.0864c0 12.9033 8.1488 20.9478 20.9366 20.9478h31.5865c12.9089 0 20.9771-7.8812 20.9771-20.6987v-31.3355zm16.7815 17.7789c.0807 1.8742 1.6136 3.3483 3.4692 3.2626 1.8154-.0776 3.2676-1.6293 3.1869-3.5117-.0403-1.8334-1.5329-3.2667-3.3482-3.2667-1.8557.0858-3.3079 1.6375-3.3079 3.5158zm16.58 0c.0807 1.8742 1.6136 3.3483 3.4693 3.2626 1.8153-.0776 3.2675-1.6293 3.1869-3.5117-.0404-1.8334-1.533-3.2667-3.3483-3.2667-1.8556.0858-3.3079 1.6375-3.3079 3.5158zm16.5799 14.8184c0 1.8783 1.4926 3.43 3.3482 3.4708 1.896 0 3.4289-1.5516 3.4289-3.4708 0-1.9151-1.5329-3.4667-3.4289-3.4667h-.0403c-1.8557.0408-3.3483 1.5884-3.3079 3.4667zm-13.1106 3.2667c-1.8557.0858-3.3886-1.3883-3.4693-3.2666 0-1.8784 1.4523-3.4259 3.3079-3.5117 1.8153 0 3.3079 1.4333 3.3483 3.2708.0806 1.8783-1.3716 3.43-3.1869 3.5075zm-16.6204 0c-1.8557.0858-3.3886-1.3883-3.4693-3.2666 0-1.8784 1.4523-3.4259 3.3079-3.5117 1.8153 0 3.3079 1.4333 3.3483 3.2708.0806 1.8783-1.3716 3.43-3.1869 3.5075zm33.079-21.5559c-1.8557.0408-3.3079 1.5516-3.3079 3.43v.0408c.0403 1.8743 1.5733 3.3034 3.4289 3.2626 1.8153-.0368 3.2676-1.5884 3.2272-3.4668-.0806-1.8007-1.5329-3.2666-3.3482-3.2666z" fill="#ffcbb9" fill-opacity=".35" fill-rule="evenodd"/><path d="m27.7715 51.822-.9998-.0219c-.0059.269.0969.529.285.7213.1881.1922.4458.3006.7148.3006zm.6333-8.6852.9707.2403c.0017-.0069.0034-.0139.005-.021zm72.8382 8.6852v1c.269 0 .527-.1084.715-.3006.188-.1923.291-.4523.285-.7212zm-.629-8.6852-.9753.2212c.0017.0077.0036.0153.0055.0229zm-17.9112-14.8634.0878-.9961c-.0292-.0026-.0585-.0039-.0878-.0039zm-36.3869 0v-1c-.0276 0-.0552.0012-.0827.0035zm-18.5581 23.5494v-1c-.5523 0-1 .4477-1 1zm73.5002 0h1c0-.5523-.448-1-1-1zm-53.2495 21.0415-.0427-.9991-.0034.0001zm-3.4692-3.2626h-1c0 .0143.0003.0287.0009.043zm6.6561-.2491-.9997.022c.0001.0069.0003.0139.0006.0208zm-3.3482-3.2667v-1c-.0154 0-.0308.0004-.0462.0011zm16.7414 6.7784-.0427-.9991-.0035.0001zm-3.4693-3.2626h-1c0 .0143.0003.0287.0009.043zm6.6562-.2491-.9998.022c.0001.0069.0004.0139.0007.0208zm-3.3483-3.2667v-1c-.0154 0-.0308.0004-.0462.0011zm16.6202 21.805-.022.9998c.0073.0002.0147.0002.022.0002zm-3.3482-3.4708h1c0-.0072-.0001-.0143-.0003-.0215zm3.3079-3.4667v-1c-.0074 0-.0147 0-.022.0002zm-19.8878 3.4668h-1c0 .0143.0003.0286.0009.0429zm3.4693 3.2666-.0427-.999-.0035.0001zm-.1614-6.7783v-1c-.0154 0-.0308.0004-.0462.0011zm3.3483 3.2708-.9998.0219c.0001.007.0004.014.0007.021zm-23.2766.2409h-1c0 .0143.0003.0286.0009.0429zm3.4693 3.2666-.0427-.999-.0035.0001zm-.1614-6.7783v-1c-.0154 0-.0308.0004-.0461.0011zm3.3483 3.2708-.9998.0219c.0002.007.0004.014.0007.021zm29.8921-18.0484v-1c-.0073 0-.0147 0-.022.0002zm-3.3079 3.4708h-1c0 .0072.0001.0144.0002.0215zm3.4289 3.2626-.0202-.9998h-.0018zm3.2272-3.4668.9998-.0214c-.0002-.0078-.0004-.0156-.0008-.0233zm-55.6242-17.5536c.026-1.188.0891-2.9628.1925-4.6271.1057-1.7017.2481-3.1785.4118-3.8397l-1.9414-.4807c-.2154.8701-.3635 2.5375-.4666 4.1964-.1053 1.6962-.1693 3.4984-.1958 4.7073zm72.4718-1.0219h-73.4715v2h73.4715zm-1.5988-7.4411c.1605.6377.3019 2.1097.4068 3.8186.103 1.669.166 3.4542.192 4.6444l2-.0437c-.026-1.2109-.09-3.0231-.195-4.7238-.103-1.6609-.25-3.331-.464-4.1837zm-17.0291-14.1113c8.9285.7864 15.1925 6.0182 17.0236 14.0884l1.9503-.4425c-2.0414-8.998-9.0896-14.7831-18.7984-15.6382zm-36.2992.0038h36.3869v-2h-36.3869zm-16.9354 14.0827c1.8322-8.1486 8.0155-13.3391 17.0181-14.0861l-.1654-1.9931c-9.796.8128-16.7635 6.5656-18.804 15.6405zm-.6227 39.5531v-31.0864h-2v31.0864zm19.9366 19.9478c-6.1817 0-11.1437-1.94-14.5578-5.3436-3.4135-3.4026-5.3788-8.3664-5.3788-14.6042h-2c0 6.6654 2.1091 12.1754 5.9669 16.0207 3.8572 3.8451 9.3635 5.9271 15.9697 5.9271zm31.5865 0h-31.5865v2h31.5865zm19.9771-19.6987c0 6.1953-1.9453 11.0937-5.3492 14.443-3.4059 3.3517-8.3778 5.2557-14.6279 5.2557v2c6.6587 0 12.1753-2.037 16.0306-5.8301 3.8575-3.7956 5.9465-9.2464 5.9465-15.8686zm0-31.3355v31.3355h2v-31.3355zm-72.5002 1h73.5002v-2h-73.5002zm20.2046 19.0425c-1.2703.0587-2.3657-.9524-2.424-2.3066l-1.9982.086c.1031 2.3943 2.0735 4.3313 4.5145 4.2185zm2.2339-2.4699c.0571 1.3324-.9687 2.4159-2.2305 2.4698l.0854 1.9982c2.3689-.1013 4.2476-2.1211 4.1433-4.5536zm-2.3491-2.3095c1.2786 0 2.3202 1.0059 2.3485 2.2887l1.9995-.044c-.0525-2.384-1.996-4.2447-4.348-4.2447zm-2.3079 2.5158c0-1.3591 1.0471-2.4564 2.354-2.5168l-.0923-1.9979c-2.4044.1111-4.2617 2.1171-4.2617 4.5147zm19.0031 2.2636c-1.2703.0587-2.3657-.9524-2.424-2.3066l-1.9982.086c.1031 2.3943 2.0735 4.3313 4.5145 4.2185zm2.234-2.4699c.0571 1.3324-.9688 2.4159-2.2305 2.4698l.0854 1.9982c2.3688-.1013 4.2475-2.1211 4.1432-4.5536zm-2.3492-2.3095c1.2787 0 2.3203 1.0059 2.3485 2.2887l1.9995-.044c-.0524-2.384-1.996-4.2447-4.348-4.2447zm-2.3079 2.5158c0-1.3591 1.0472-2.4564 2.3541-2.5168l-.0924-1.9979c-2.4043.1111-4.2617 2.1171-4.2617 4.5147zm18.9501 17.2895c-1.2983-.0286-2.3702-1.1226-2.3702-2.4711h-2c0 2.4082 1.9132 4.4175 4.3262 4.4706zm2.4069-2.4711c0 1.3784-1.0966 2.4708-2.4289 2.4708v2c2.4597 0 4.4289-2.0108 4.4289-4.4708zm-2.4289-2.4667c1.3331 0 2.4289 1.0932 2.4289 2.4667h2c0-2.4566-1.97-4.4667-4.4289-4.4667zm-.0403 0h.0403v-2h-.0403zm-2.3082 2.4452c-.0284-1.3264 1.0266-2.4168 2.3302-2.4455l-.044-1.9995c-2.4077.053-4.3379 2.0578-4.2857 4.488zm-18.5787.0645c.103 2.3976 2.0728 4.3355 4.5145 4.2227l-.0923-1.9979c-1.2695.0587-2.3656-.9516-2.424-2.3106zm4.2608-4.5535c-2.4029.111-4.2617 2.1115-4.2617 4.5106h2c0-1.3576 1.0457-2.4523 2.3541-2.5128zm4.3942 4.2477c-.0524-2.3873-1.9952-4.2488-4.348-4.2488v2c1.2779 0 2.3202 1.0051 2.3485 2.2927zm-4.1439 4.5286c2.368-.1012 4.2476-2.1202 4.1432-4.5496l-1.9981.0859c.057 1.3273-.968 2.4116-2.2305 2.4656zm-21.1315-4.2228c.103 2.3976 2.0728 4.3355 4.5145 4.2227l-.0923-1.9979c-1.2695.0587-2.3656-.9516-2.424-2.3106zm4.2609-4.5535c-2.403.111-4.2618 2.1115-4.2618 4.5106h2c0-1.3576 1.0457-2.4523 2.3541-2.5128zm4.3941 4.2477c-.0524-2.3873-1.9952-4.2488-4.348-4.2488v2c1.2779 0 2.3202 1.0051 2.3485 2.2927zm-4.1439 4.5286c2.368-.1012 4.2476-2.1202 4.1432-4.5496l-1.9981.0859c.057 1.3273-.968 2.4116-2.2305 2.4656zm30.7284-19.125c0-1.3489 1.032-2.4017 2.3299-2.4303l-.044-1.9995c-2.4134.0531-4.2859 2.022-4.2859 4.4298zm0 .0408v-.0408h-2v.0408zm2.4069 2.2628c-1.315.029-2.3789-.9741-2.4071-2.2843l-1.9996.043c.0525 2.4383 2.0545 4.2936 4.4507 4.2408zm2.2495-2.4455c.029 1.3524-1.0114 2.4205-2.2477 2.4455l.0405 1.9996c2.3943-.0485 4.2583-2.0838 4.2067-4.488zm-2.3485-2.2881c1.2525 0 2.2912 1.0166 2.3492 2.3114l1.998-.0895c-.1033-2.3068-1.9691-4.2219-4.3472-4.2219z" fill="url(#h)" mask="url(#o)"/></g><g filter="url(#c)"><path clip-rule="evenodd" d="m52.5259 37.7878c0 1.8007-1.3312 3.1441-3.1062 3.1441s-3.1062-1.3434-3.1062-3.1441v-12.4501c0-1.8007 1.3312-3.1482 3.1062-3.1482s3.1062 1.3475 3.1062 3.1482zm30.1758 0c0 1.8007-1.3716 3.1441-3.1062 3.1441-1.775 0-3.1062-1.3434-3.1062-3.1441v-12.4501c0-1.8007 1.3312-3.1482 3.1062-3.1482 1.7346 0 3.1062 1.3475 3.1062 3.1482z" fill="url(#j)" fill-rule="evenodd"/><path d="m49.4197 41.3319c2.0001 0 3.5062-1.5267 3.5062-3.5441h-.8c0 1.5841-1.1564 2.7441-2.7062 2.7441zm-3.5062-3.5441c0 2.0174 1.5061 3.5441 3.5062 3.5441v-.8c-1.5499 0-2.7062-1.16-2.7062-2.7441zm0-12.4501v12.4501h.8v-12.4501zm3.5062-3.5482c-2.0008 0-3.5062 1.5315-3.5062 3.5482h.8c0-1.5848 1.157-2.7482 2.7062-2.7482zm3.5062 3.5482c0-2.0167-1.5054-3.5482-3.5062-3.5482v.8c1.5491 0 2.7062 1.1634 2.7062 2.7482zm0 12.4501v-12.4501h-.8v12.4501zm26.6696 3.5441c1.9563 0 3.5062-1.5233 3.5062-3.5441h-.8c0 1.5806-1.1933 2.7441-2.7062 2.7441zm-3.5062-3.5441c0 2.0174 1.506 3.5441 3.5062 3.5441v-.8c-1.5499 0-2.7062-1.16-2.7062-2.7441zm0-12.4501v12.4501h.8v-12.4501zm3.5062-3.5482c-2.0008 0-3.5062 1.5315-3.5062 3.5482h.8c0-1.5848 1.157-2.7482 2.7062-2.7482zm3.5062 3.5482c0-2.0201-1.5492-3.5482-3.5062-3.5482v.8c1.5122 0 2.7062 1.1669 2.7062 2.7482zm0 12.4501v-12.4501h-.8v12.4501z" fill="url(#k)" mask="url(#p)"/></g><g filter="url(#d)"><path clip-rule="evenodd" d="m44.5764 69.6388c.0807 1.8743 1.6136 3.3483 3.4693 3.2626 1.8153-.0776 3.2675-1.6293 3.1869-3.5117-.0404-1.8334-1.533-3.2667-3.3483-3.2667-1.8556.0858-3.3079 1.6375-3.3079 3.5158zm16.5792 0c.0806 1.8743 1.6136 3.3483 3.4692 3.2626 1.8153-.0776 3.2676-1.6293 3.1869-3.5117-.0403-1.8334-1.5329-3.2667-3.3482-3.2667-1.8557.0858-3.3079 1.6375-3.3079 3.5158zm16.5798 14.8182c0 1.8784 1.4926 3.43 3.3483 3.4709 1.8959 0 3.4289-1.5517 3.4289-3.4709 0-1.915-1.533-3.4667-3.4289-3.4667h-.0404c-1.8556.0408-3.3482 1.5884-3.3079 3.4667zm-13.1106 3.267c-1.8556.0858-3.3886-1.3883-3.4692-3.2667 0-1.8783 1.4522-3.4259 3.3079-3.5116 1.8153 0 3.3079 1.4332 3.3482 3.2707.0807 1.8784-1.3716 3.43-3.1869 3.5076zm-16.6204 0c-1.8556.0858-3.3886-1.3883-3.4692-3.2667 0-1.8783 1.4522-3.4259 3.3079-3.5116 1.8153 0 3.3079 1.4332 3.3482 3.2707.0807 1.8784-1.3716 3.43-3.1869 3.5076zm33.0791-21.5559c-1.8557.0408-3.3079 1.5516-3.3079 3.43v.0408c.0403 1.8742 1.5732 3.3034 3.4289 3.2626 1.8153-.0368 3.2676-1.5884 3.2272-3.4668-.0807-1.8007-1.5329-3.2666-3.3482-3.2666z" fill="url(#l)" fill-rule="evenodd"/><path d="m48.0457 72.9014-.0171-.3997-.0014.0001zm-3.4693-3.2626h-.4v.0086l.0004.0086zm6.6562-.2491-.4.0088.0003.0083zm-3.3483-3.2667v-.4h-.0092l-.0092.0005zm16.7405 6.7784-.0171-.3997-.0013.0001zm-3.4692-3.2626h-.4v.0086l.0003.0086zm6.6561-.2491-.4.0088.0004.0083zm-3.3482-3.2667v-.4h-.0093l-.0092.0005zm16.6202 21.8049-.0088.4h.0088zm-3.3483-3.4709h.4001l-.0002-.0086zm3.3079-3.4667v-.4001l-.0088.0002zm-19.8877 3.467h-.4v.0086l.0003.0086zm3.4692 3.2667-.0171-.3996h-.0013zm-.1613-6.7783v-.4h-.0093l-.0092.0004zm3.3482 3.2707-.4.0088.0004.0084zm-23.2765.2409h-.4v.0086l.0003.0086zm3.4692 3.2667-.0171-.3996h-.0013zm-.1613-6.7783v-.4h-.0093l-.0092.0004zm3.3482 3.2707-.4.0088.0004.0084zm29.8922-18.0483v-.4001l-.0088.0002zm-3.3079 3.4708h-.4001l.0002.0086zm3.4289 3.2626-.0081-.3999h-.0007zm3.2272-3.4668.4-.0086-.0004-.0093zm-36.4045 3.0671c-1.6215.0749-2.9794-1.214-3.0512-2.8802l-.7992.0344c.0896 2.0823 1.7976 3.7415 3.8873 3.645zm2.8057-3.095c.0713 1.6624-1.2104 3.0268-2.8043 3.0949l.0342.7993c2.0367-.087 3.6595-1.826 3.5694-3.9284zm-2.9486-2.8838c1.6007 0 2.9129 1.2623 2.9484 2.8755l.7998-.0176c-.0452-2.0536-1.7182-3.6579-3.7482-3.6579zm-2.9079 3.1158c0-1.6706 1.2902-3.0406 2.9264-3.1162l-.0369-.7991c-2.0752.0959-3.6895 1.8293-3.6895 3.9153zm19.63 2.863c-1.6215.0749-2.9795-1.214-3.0512-2.8802l-.7993.0344c.0897 2.0823 1.7976 3.7415 3.8874 3.645zm2.8057-3.095c.0712 1.6624-1.2105 3.0268-2.8044 3.0949l.0342.7993c2.0367-.087 3.6596-1.826 3.5694-3.9284zm-2.9486-2.8838c1.6006 0 2.9128 1.2623 2.9483 2.8755l.7998-.0176c-.0452-2.0536-1.7181-3.6579-3.7481-3.6579zm-2.9079 3.1158c0-1.6706 1.2902-3.0406 2.9263-3.1162l-.0369-.7991c-2.0751.0959-3.6894 1.8293-3.6894 3.9153zm19.5369 17.8892c-1.6328-.036-2.9571-1.4046-2.9571-3.071h-.8c0 2.0903 1.6609 3.825 3.7395 3.8708zm3.0201-3.071c0 1.7029-1.3584 3.0709-3.0289 3.0709v.8c2.1214 0 3.8289-1.7354 3.8289-3.8709zm-3.0289-3.0667c1.6708 0 3.0289 1.3683 3.0289 3.0667h.8c0-2.1317-1.7078-3.8667-3.8289-3.8667zm-.0404 0h.0404v-.8h-.0404zm-2.908 3.0581c-.0356-1.6575 1.282-3.0222 2.9168-3.0582l-.0176-.7998c-2.0765.0457-3.7441 1.7761-3.699 3.8752zm-17.3794.0261c.0896 2.0861 1.7973 3.7457 3.8874 3.6491l-.0369-.7992c-1.6212.075-2.9794-1.2136-3.0512-2.8842zm3.6891-3.9284c-2.0746.0959-3.6894 1.8246-3.6894 3.9112h.8c0-1.67 1.2896-3.0364 2.9263-3.112zm3.7666 3.6616c-.0452-2.0575-1.7178-3.662-3.7481-3.662v.8c1.6003 0 2.9128 1.262 2.9483 2.8795zm-3.5697 3.916c2.0364-.0871 3.6596-1.8257 3.5694-3.9244l-.7992.0343c.0712 1.6579-1.2101 3.0226-2.8044 3.0908zm-20.5064-3.6492c.0896 2.0861 1.7973 3.7457 3.8874 3.6491l-.0369-.7992c-1.6213.075-2.9795-1.2136-3.0512-2.8842zm3.6891-3.9284c-2.0746.0959-3.6894 1.8246-3.6894 3.9112h.8c0-1.67 1.2896-3.0364 2.9263-3.112zm3.7666 3.6616c-.0452-2.0575-1.7178-3.662-3.7481-3.662v.8c1.6003 0 2.9128 1.262 2.9483 2.8795zm-3.5697 3.916c2.0364-.0871 3.6596-1.8257 3.5694-3.9244l-.7992.0343c.0712 1.6579-1.2101 3.0226-2.8044 3.0908zm30.1541-18.5256c0-1.6666 1.2841-2.9942 2.9167-3.0301l-.0176-.7998c-2.0788.0457-3.6991 1.7398-3.6991 3.8299zm0 .0408v-.0408h-.8v.0408zm3.0201 2.8627c-1.6394.036-2.9847-1.2227-3.0202-2.8713l-.7998.0172c.0452 2.0999 1.7657 3.6995 3.8376 3.6539zm2.8361-3.0583c.0358 1.668-1.2517 3.0262-2.8354 3.0583l.0162.7998c2.0469-.0414 3.6639-1.7866 3.619-3.8753zm-2.9483-2.8752c1.5902 0 2.877 1.2862 2.9486 2.8845l.7992-.0358c-.0897-2.0031-1.7074-3.6487-3.7478-3.6487z" fill="url(#m)" mask="url(#q)"/></g><g filter="url(#e)" opacity=".5"><path d="m31.5077 52.1296c0 1.7347 1.3434 3.1062 3.1442 3.1062h58.2077c1.8007 0 3.1482-1.3715 3.1482-3.1062 0-1.7749-1.3475-3.1062-3.1482-3.1062h-58.2077c-1.8008 0-3.1442 1.3313-3.1442 3.1062z" fill="url(#n)" fill-opacity=".5"/></g></svg>